<svg width="67" height="55" viewBox="0 0 67 55" fill="none" xmlns="http://www.w3.org/2000/svg">
<g filter="url(#filter0_d_846_93)">
<path fill-rule="evenodd" clip-rule="evenodd" d="M4 4.5C4 2.01472 6.01472 0 8.5 0H58.5C60.9853 0 63 2.01472 63 4.5C63 6.98528 60.9853 9 58.5 9H8.5C6.01472 9 4 6.98528 4 4.5ZM4 23.5C4 21.0147 6.01472 19 8.5 19H58.5C60.9853 19 63 21.0147 63 23.5C63 25.9853 60.9853 28 58.5 28H8.5C6.01472 28 4 25.9853 4 23.5ZM4 42.5C4 40.0147 6.01472 38 8.5 38H58.5C60.9853 38 63 40.0147 63 42.5C63 44.9853 60.9853 47 58.5 47H8.5C6.01472 47 4 44.9853 4 42.5Z" fill="white"/>
</g>
<defs>
<filter id="filter0_d_846_93" x="0" y="0" width="67" height="55" filterUnits="userSpaceOnUse" color-interpolation-filters="sRGB">
<feFlood flood-opacity="0" result="BackgroundImageFix"/>
<feColorMatrix in="SourceAlpha" type="matrix" values="0 0 0 0 0 0 0 0 0 0 0 0 0 0 0 0 0 0 127 0" result="hardAlpha"/>
<feOffset dy="4"/>
<feGaussianBlur stdDeviation="2"/>
<feComposite in2="hardAlpha" operator="out"/>
<feColorMatrix type="matrix" values="0 0 0 0 0 0 0 0 0 0 0 0 0 0 0 0 0 0 0.25 0"/>
<feBlend mode="normal" in2="BackgroundImageFix" result="effect1_dropShadow_846_93"/>
<feBlend mode="normal" in="SourceGraphic" in2="effect1_dropShadow_846_93" result="shape"/>
</filter>
</defs>
</svg>
