<svg width="105" height="121" viewBox="0 0 105 121" fill="none" xmlns="http://www.w3.org/2000/svg">
<path fill-rule="evenodd" clip-rule="evenodd" d="M24.5 10C24.5 4.75329 28.7533 0.5 34 0.5H71C76.2467 0.5 80.5 4.75329 80.5 10V18.5H99C102.038 18.5 104.5 20.9624 104.5 24C104.5 27.0376 102.038 29.5 99 29.5H95.0034C95.3267 30.6106 95.5 31.7851 95.5 33V108C95.5 114.904 89.9036 120.5 83 120.5H23C16.0964 120.5 10.5 114.904 10.5 108V33C10.5 31.7851 10.6733 30.6106 10.9966 29.5H6C2.96243 29.5 0.5 27.0376 0.5 24C0.5 20.9624 2.96243 18.5 6 18.5H24.5V10ZM35.5 18.5H69.5V11.5H35.5V18.5ZM23 31.5C22.1716 31.5 21.5 32.1716 21.5 33V108C21.5 108.828 22.1716 109.5 23 109.5H83C83.8284 109.5 84.5 108.828 84.5 108V33C84.5 32.1716 83.8284 31.5 83 31.5H23ZM34 43.5C37.0376 43.5 39.5 45.9624 39.5 49V94.01C39.5 97.0476 37.0376 99.51 34 99.51C30.9624 99.51 28.5 97.0476 28.5 94.01V49C28.5 45.9624 30.9624 43.5 34 43.5ZM53 43.5C56.0376 43.5 58.5 45.9624 58.5 49V94.01C58.5 97.0476 56.0376 99.51 53 99.51C49.9624 99.51 47.5 97.0476 47.5 94.01V49C47.5 45.9624 49.9624 43.5 53 43.5ZM72 43.5C75.0376 43.5 77.5 45.9624 77.5 49V94.01C77.5 97.0476 75.0376 99.51 72 99.51C68.9624 99.51 66.5 97.0476 66.5 94.01V49C66.5 45.9624 68.9624 43.5 72 43.5Z" fill="white"/>
</svg>
