<svg width="17" height="17" viewBox="0 0 17 17" fill="none" xmlns="http://www.w3.org/2000/svg">
<path d="M9.30492 13.5824L11.2882 11.6461C11.6349 11.3075 12.1803 11.2604 12.5825 11.5343L15.1979 13.3153C15.697 13.6551 15.7602 14.3528 15.3299 14.7729V14.7729C14.6356 15.4508 13.6385 15.7452 12.7081 15.4388C10.9787 14.8694 8.07095 13.6383 5.64079 11.2656C3.21063 8.89296 1.94974 6.05397 1.36649 4.36548C1.05271 3.45708 1.3542 2.48357 2.04851 1.80569V1.80569C2.47879 1.38559 3.19342 1.44728 3.54152 1.93459L5.3656 4.4881C5.64611 4.88078 5.59788 5.41332 5.25115 5.75186L3.26791 7.68818" stroke="white" stroke-width="2" stroke-linecap="round"/>
</svg>
